<svg xmlns="http://www.w3.org/2000/svg" width="1000" height="800" viewBox="0 0 1000 800"><rect width="1000" height="800" fill="#f1e6e0"/><rect x="52" y="50" width="896" height="694" fill="#faf5ec"/><path d="M857 90Q826 235 861 382Q827 464 792 535" fill="none" stroke="#a4aa8c" stroke-width="4"/><path d="M849 213Q788 187 803 145Q856 158 849 213M851 310Q900 266 917 311Q898 354 851 310M825 457Q770 423 787 391Q832 405 825 457" fill="#b4b799"/><g fill="#d8b8ac"><ellipse cx="855" cy="143" rx="21" ry="47" transform="rotate(-38 855 143)"/><ellipse cx="890" cy="155" rx="20" ry="44" transform="rotate(38 890 155)"/><ellipse cx="870" cy="127" rx="20" ry="44"/></g><circle cx="870" cy="170" r="13" fill="#b28e79"/><circle cx="177" cy="142" r="32" fill="none" stroke="#c7afa0"/><path d="M166 144L175 152L191 130" stroke="#baa08a" stroke-width="2" fill="none"/><path d="M135 641H622" stroke="#d7c9ba"/><g font-family="SimSun,serif" fill="#675348"><text x="137" y="251" font-size="24" letter-spacing="6" fill="#a68b7b">送 给 想 到 的 你</text><text x="137" y="365" font-size="64" letter-spacing="5">给自己一点时间</text><text x="137" y="460" font-size="64" letter-spacing="5">让日常慢慢开花</text><text x="137" y="554" font-size="28" letter-spacing="3" fill="#977b68">来轻体营，一起留一点轻</text></g><g fill="#a08d7d" font-family="SimSun,serif"><text x="70" y="730" font-size="23" letter-spacing="5">轻生活 · 轻体营</text><text x="930" y="730" text-anchor="end" font-size="23" letter-spacing="3">一封相聚的邀请</text></g></svg>