<svg xmlns="http://www.w3.org/2000/svg" width="1000" height="800" viewBox="0 0 1000 800"><rect width="1000" height="800" fill="#f5eee2"/><rect x="36" y="36" width="928" height="728" rx="4" fill="none" stroke="#d5c3ae"/><path d="M650 0H1000V800H700Q765 610 698 450T650 0" fill="#e9ddd0"/><ellipse cx="763" cy="629" rx="194" ry="41" fill="#d8c3ae" opacity=".6"/><path d="M668 521H834L816 615Q796 641 745 636Q702 631 687 611Z" fill="#c1a589"/><path d="M835 541Q887 532 880 566Q873 598 822 596" fill="none" stroke="#b09277" stroke-width="16"/><ellipse cx="752" cy="522" rx="82" ry="19" fill="#d5bfa7"/><ellipse cx="752" cy="522" rx="69" ry="12" fill="#a18469"/><path d="M731 474Q708 425 742 388M765 470Q750 426 777 399" fill="none" stroke="#c6b299" stroke-width="3"/><path d="M856 511Q847 344 886 220" stroke="#8e957d" stroke-width="4" fill="none"/><path d="M874 288Q819 266 837 223Q887 237 874 288M861 354Q907 315 927 346Q910 391 861 354" fill="#a6ae90"/><g font-family="SimSun,serif" fill="#675348"><text x="96" y="157" font-size="24" letter-spacing="5" fill="#a18b75">邀 你 一 起</text><text x="96" y="294" font-size="66" letter-spacing="8">生活很满</text><text x="96" y="395" font-size="66" letter-spacing="8">也可以留一点</text><text x="434" y="476" font-size="84" fill="#947665">轻</text><path d="M97 543H388" stroke="#b9a58e"/><text x="96" y="604" font-size="26" letter-spacing="3">给自己，也给我们一点时间</text></g><g fill="#a08d7d" font-family="SimSun,serif"><text x="70" y="730" font-size="23" letter-spacing="5">轻生活 · 轻体营</text><text x="930" y="730" text-anchor="end" font-size="23" letter-spacing="3">一封相聚的邀请</text></g></svg>